<svg xmlns="http://www.w3.org/2000/svg" viewBox="0 0 88.31 91.1"><defs><style>.cls-1{fill:#34383a;}</style></defs><g id="Layer_2" data-name="Layer 2"><g id="Layer_1-2" data-name="Layer 1"><path class="cls-1" d="M62.71,88.64A1.51,1.51,0,0,0,63.9,91.1h5.93a7.55,7.55,0,0,0,6.38-3.48c4-6.23,13.2-22.79,12-42.18-.63-10.08-5.4-18.9-13.8-25.56A40.83,40.83,0,0,0,73,5.46,7.58,7.58,0,0,0,63.55.31a7.5,7.5,0,0,0-2.09,1L49.77,9.08H38.54L26.85,1.28A7.6,7.6,0,0,0,16.32,3.37a7.37,7.37,0,0,0-1,2.09,41.06,41.06,0,0,0-1.44,14.42C5.51,26.54.74,35.36.11,45.44c-1.21,19.39,8,36,12,42.18a7.56,7.56,0,0,0,6.39,3.48h5.92a1.52,1.52,0,0,0,1.52-1.52,1.54,1.54,0,0,0-.33-.94A69.78,69.78,0,0,1,18,75.6c-3.18-7-6.5-17.68-4.24-28.23a31.45,31.45,0,0,1,6.87-14.3,7.54,7.54,0,0,0,6.24-1l11.69-7.79H49.77l11.69,7.79a7.56,7.56,0,0,0,6.25,1,31.44,31.44,0,0,1,6.86,14.3c2.26,10.56-1.06,21.18-4.24,28.23A70.43,70.43,0,0,1,62.71,88.64ZM73.66,86a4.51,4.51,0,0,1-3.83,2.09h-3c1-1.46,2.3-3.53,3.68-6.07H76C75.15,83.59,74.33,84.93,73.66,86ZM18.49,88.06A4.53,4.53,0,0,1,14.65,86c-.67-1-1.49-2.38-2.38-4h5.5c1.38,2.54,2.69,4.61,3.68,6.07ZM10.77,46.73c-1.93,9-.38,19.45,4.47,30.19.32.7.64,1.37,1,2H10.66C6.71,71.07,2.3,59,3.14,45.63A31.64,31.64,0,0,1,14.35,23.47a39.06,39.06,0,0,0,1,4.41,7.45,7.45,0,0,0,2.48,3.76A34.77,34.77,0,0,0,10.77,46.73Zm14.39-17.2a4.51,4.51,0,0,1-4.11.49,4.45,4.45,0,0,1-2.78-3,37.87,37.87,0,0,1,0-20.74,4.54,4.54,0,0,1,6.89-2.49l11.4,7.6v4l-.33-.16a21.69,21.69,0,0,0-8.78-1.65,1.52,1.52,0,1,0,0,3c5.22,0,8.07,1.55,9.11,2.26v3Zm14.44-8.3V12.12h9.11v9.11Zm23.55,8.3-11.4-7.6v-3c1-.7,3.86-2.25,9.11-2.25a1.52,1.52,0,1,0,0-3,21.69,21.69,0,0,0-8.78,1.65l-.33.16v-4l11.4-7.6A4.54,4.54,0,0,1,70,6.3,37.87,37.87,0,0,1,70,27a4.45,4.45,0,0,1-2.78,3A4.51,4.51,0,0,1,63.15,29.53Zm14.39,17.2a34.77,34.77,0,0,0-7.06-15.09A7.45,7.45,0,0,0,73,27.88a39.06,39.06,0,0,0,1-4.41A31.64,31.64,0,0,1,85.17,45.63C86,59,81.6,71.07,77.65,79H72.11c.32-.66.64-1.34,1-2,4.85-10.74,6.4-21.17,4.47-30.19Z"/></g></g></svg>