<svg xmlns="http://www.w3.org/2000/svg" viewBox="0 0 52.93 91.1"><defs><style>.cls-1{fill:#34383a;}</style></defs><g id="Layer_2" data-name="Layer 2"><g id="Layer_1-2" data-name="Layer 1"><path class="cls-1" d="M48.73,61.23l-.13,0-.05-.13c-1.41-3.5-5.43-15.91,2-28.36a1.57,1.57,0,0,0,.23-.69V32l0-.06A8.8,8.8,0,0,0,52.93,26,14.28,14.28,0,0,0,48.7,15.83L41.48,8.6V1.66a1.66,1.66,0,1,0-3.31,0V9L36.88,14.2A18.59,18.59,0,0,1,26.57,26.53l-.1,0-.1,0A18.55,18.55,0,0,1,16.06,14.19L14.78,9.13V1.66a1.66,1.66,0,0,0-3.32,0V8.6L4.23,15.83A14.28,14.28,0,0,0,0,26a8.77,8.77,0,0,0,2.1,5.82l.06.07V32a1.67,1.67,0,0,0,.22.74c7.46,12.5,3.41,24.87,2,28.36l0,.13-.12,0A5.29,5.29,0,0,0,0,66.34v4A1.65,1.65,0,0,0,1,71.9C1.22,72,19.45,79.36,23,90a1.68,1.68,0,0,0,1.58,1.14h3.81A1.68,1.68,0,0,0,30,90C33.49,79.32,51.71,72,51.89,71.9a1.65,1.65,0,0,0,1-1.54v-4A5.27,5.27,0,0,0,48.73,61.23Zm.89,8-.15.07c-4.14,1.83-18,8.55-22.18,18.3l-.07.15H25.71l-.07-.15c-4.21-9.75-18-16.47-22.17-18.3l-.15-.07V66.34a2.09,2.09,0,0,1,2.23-2,10.33,10.33,0,0,0,7-2.81l.82-.84a16.56,16.56,0,0,0,5.23-12.09,14.59,14.59,0,0,0-1-5c-2.07-5.59-6-8.41-9.08-10.68-3.4-2.49-5.18-3.93-5.18-7a11,11,0,0,1,3.25-7.84l5.65-5.64L12.83,15a21.84,21.84,0,0,0,13,14.92,1.76,1.76,0,0,0,1.24,0A21.83,21.83,0,0,0,40.1,15l.61-2.48,5.65,5.64A11,11,0,0,1,49.61,26c0,3.14-1.77,4.56-5.16,7-3.14,2.26-7,5-9.1,10.67a14.54,14.54,0,0,0-1,5,16.54,16.54,0,0,0,5.18,12l.94.92a10.1,10.1,0,0,0,6.91,2.77,2.09,2.09,0,0,1,2.24,2ZM8.25,37.51,8,36.71l.66.52a16.66,16.66,0,0,1,5.82,7.58,11.16,11.16,0,0,1,.81,3.83,13.39,13.39,0,0,1-4.22,9.71l-.82.83a6.85,6.85,0,0,1-1.56,1.09l-.53.27L8.32,60A35.89,35.89,0,0,0,8.25,37.51ZM44.61,60l.18.57-.53-.27a6.44,6.44,0,0,1-1.5-1.05l-.93-.92a13.32,13.32,0,0,1-4.16-9.67,11.22,11.22,0,0,1,.8-3.82,16.51,16.51,0,0,1,5.81-7.56l.66-.51-.27.79A35.88,35.88,0,0,0,44.61,60Z"/></g></g></svg>