<svg xmlns="http://www.w3.org/2000/svg" viewBox="0 0 69.92 91.1"><defs><style>.cls-1{fill:#34383a;}</style></defs><g id="Layer_2" data-name="Layer 2"><g id="Layer_1-2" data-name="Layer 1"><path class="cls-1" d="M56.22,46.73c-1.16-6.94,7.09-20.15,10.37-24.66l0-.1A16.66,16.66,0,0,0,66,1.26s-.07-.05-.1-.08A1.55,1.55,0,0,0,65.62,1L65.36.85l-.1-.06C65.1.74,49.74-4,37.62,10.16H32.3C20.18-4,4.82.74,4.66.79l-.1.06L4.3,1a1.55,1.55,0,0,0-.24.19s-.07,0-.1.08A16.66,16.66,0,0,0,3.28,22l.05.1C6.61,26.58,14.86,39.79,13.7,46.73,12.62,53.24,6.38,63.4,3.75,67.47a3.85,3.85,0,0,0,.81,5.1v14a4.56,4.56,0,0,0,9.12,0V76.92a32.31,32.31,0,0,1,5.64,5.32c.7.82,1.42,1.65,2.18,2.46h0a1.49,1.49,0,0,0,.63.66c3.19,3.24,7,5.92,11.85,5.73.65,0,1.31,0,2,0h.5c4.64,0,8.28-2.61,11.36-5.75a1.44,1.44,0,0,0,.62-.65h0c.76-.81,1.48-1.64,2.18-2.46a32.31,32.31,0,0,1,5.64-5.32v9.62a4.56,4.56,0,1,0,9.12,0v-14a3.85,3.85,0,0,0,.81-5.1C63.54,63.4,57.31,53.24,56.22,46.73Zm9.62-29.42a13.65,13.65,0,0,1-9,7.91,9.31,9.31,0,0,0,1.75-2.39c1.79-3.63.83-7.82,0-10.07a19.67,19.67,0,0,0,6.44-7.38A13.71,13.71,0,0,1,65.84,17.31Zm-3.09-14A16.66,16.66,0,0,1,47.5,13.2a16.89,16.89,0,0,1-7.13-1.58C49,2,58.94,2.62,62.75,3.32ZM47.5,16.24A19.68,19.68,0,0,0,56,14.31a10,10,0,0,1-.09,7.16A8.12,8.12,0,0,1,50.2,25.4,13.72,13.72,0,0,1,39.78,14.68,19.87,19.87,0,0,0,47.5,16.24ZM31.73,19.37a1.23,1.23,0,0,0,.12-.26,16.61,16.61,0,0,0,1.53-5.91h3.16a16.66,16.66,0,0,0,1.53,5.92,1.63,1.63,0,0,0,.11.23,17,17,0,0,0,2.56,3.81A7.17,7.17,0,0,1,35,25.36a7.16,7.16,0,0,1-5.78-2.2A16.8,16.8,0,0,0,31.73,19.37Zm-12,6A8.12,8.12,0,0,1,14,21.47a10,10,0,0,1-.09-7.16,19.68,19.68,0,0,0,8.5,1.93,19.87,19.87,0,0,0,7.72-1.56A13.72,13.72,0,0,1,19.72,25.4Zm9.83-13.78a16.89,16.89,0,0,1-7.13,1.58A16.69,16.69,0,0,1,7.17,3.33,24.17,24.17,0,0,1,29.55,11.62ZM4.08,17.31A13.71,13.71,0,0,1,4.79,5.38h0a19.67,19.67,0,0,0,6.44,7.38c-.78,2.25-1.74,6.44,0,10.07A9.31,9.31,0,0,0,13,25.22,13.65,13.65,0,0,1,4.08,17.31Zm6.56,69.23a1.52,1.52,0,0,1-3,0v-3h3v3Zm0-6.08h-3V73.78a19.71,19.71,0,0,1,3,1.27Zm-.62-9c.67-.31,1.3-.62,1.88-1a25.33,25.33,0,0,0,6.21-5.13,65.83,65.83,0,0,0,1.14,12.37A27.62,27.62,0,0,0,10,71.43Zm.36-3.59a23.82,23.82,0,0,1-4.2,1.85.82.82,0,0,1,.12-.57h0C9.7,63.87,15.56,54,16.7,47.23c.95-5.69-2.86-13.83-6.24-19.68A16.56,16.56,0,0,0,21.84,28C25.72,42.16,23.12,60.47,10.38,67.84ZM45.86,83c-2.8,2.91-5.93,5.2-9.8,5.06-.73,0-1.47,0-2.2,0-3.87.14-7-2.15-9.8-5.06-3.48-7.54-2.91-20.07-2.8-21.93,5.87-9.78,6.52-23.25,3.4-34.29a17.31,17.31,0,0,0,2.28-1.51,10.35,10.35,0,0,0,8,3.14,10.35,10.35,0,0,0,8-3.14,17.31,17.31,0,0,0,2.28,1.51c-3.12,11-2.47,24.52,3.4,34.29C48.77,62.92,49.34,75.44,45.86,83Zm4.81-5.28a65.8,65.8,0,0,0,1.14-12.36A25.52,25.52,0,0,0,58,70.47c.58.34,1.21.65,1.88,1A27.62,27.62,0,0,0,50.67,77.71Zm11.65,8.83a1.52,1.52,0,0,1-3,0v-3h3v3Zm0-6.08h-3V75.05a19.71,19.71,0,0,1,3-1.27Zm1.42-10.77a23.82,23.82,0,0,1-4.2-1.85C46.8,60.47,44.2,42.16,48.08,28a16.56,16.56,0,0,0,11.38-.42c-3.38,5.85-7.19,14-6.24,19.68,1.14,6.81,7,16.64,10.4,21.89A.82.82,0,0,1,63.74,69.69Z"/></g></g></svg>