<svg xmlns="http://www.w3.org/2000/svg" viewBox="0 0 96.93 92.06"><defs><style>.cls-1{fill:#34383a;}</style></defs><g id="Layer_2" data-name="Layer 2"><g id="Layer_1-2" data-name="Layer 1"><g id="Page-1"><g id="_027---Push-Up" data-name="027---Push-Up"><path id="Shape" class="cls-1" d="M87.14,39.49c-.3-7.65-1.55-24.84-6.79-36.63a4.85,4.85,0,0,0-9.26,1.73c-1.31,7.56-2.5,27.46-.75,38.77-1.18.69-2.32,1.4-3.39,2.12-10.49,7-16,17.86-18.49,23.93C46,63.34,40.46,52.48,30,45.48c-1.08-.71-2.22-1.43-3.4-2.12,1.76-11.3.56-31.21-.75-38.77a4.85,4.85,0,0,0-9.26-1.73c-5.23,11.79-6.48,29-6.78,36.63A27.26,27.26,0,0,0,0,60.66v.71c0,.68,0,16.82,2.59,27.06a4.81,4.81,0,0,0,4.7,3.63H89.64a4.81,4.81,0,0,0,4.7-3.63c2.56-10.24,2.59-26.38,2.59-27.06v-.71a27.26,27.26,0,0,0-9.79-21.17ZM72.7,80.75c-9.15,0-18.32-4.81-21.83-6.87C63.55,58.67,84.3,53.59,92.23,52.16a24.88,24.88,0,0,1,1.47,8.5c0,11.83-8.64,20.09-21,20.09Zm-68-28.59c7.91,1.43,28.67,6.51,41.35,21.71-3.51,2.07-12.66,6.88-21.83,6.88-12.36,0-21-8.26-21-20.09A24.61,24.61,0,0,1,4.71,52.16ZM75.26,3.35a1.64,1.64,0,0,1,2.15.82c4.84,10.9,6.12,26.88,6.47,34.68a26.65,26.65,0,0,0-3.23.41c-.3-7-1.49-23.2-6.21-33.8a1.55,1.55,0,0,1-.13-.63A1.6,1.6,0,0,1,75.26,3.35Zm-1.82,8.82c3,10,3.81,22.51,4,27.93a33.47,33.47,0,0,0-4.08,1.65A158.86,158.86,0,0,1,73.44,12.17Zm-4.69,36c4.69-3.12,9.91-6,16.34-6.19a23.41,23.41,0,0,1,5.79,7.14C83.13,50.6,66.05,55,53.24,66.75A47.48,47.48,0,0,1,68.75,48.17ZM19.48,40.09c.2-5.41,1-17.88,4-27.92a158.85,158.85,0,0,1,.07,29.58,33.47,33.47,0,0,0-4.08-1.65Zm0-35.91a1.64,1.64,0,0,1,2.14-.83,1.61,1.61,0,0,1,1,1.48,1.57,1.57,0,0,1-.14.64c-4.71,10.6-5.9,26.75-6.2,33.79a27.16,27.16,0,0,0-3.23-.41C13.39,31.05,14.68,15.07,19.52,4.18ZM11.84,42c6.43.15,11.65,3.06,16.34,6.18A47.56,47.56,0,0,1,43.7,66.76C30.88,55,13.8,50.6,6.06,49.13A23.27,23.27,0,0,1,11.84,42ZM91.21,87.65a1.63,1.63,0,0,1-1.57,1.18H7.29a1.63,1.63,0,0,1-1.57-1.18,89.84,89.84,0,0,1-2-14.05A23.82,23.82,0,0,0,24.23,84C35,84,45.41,78.09,48.46,76.2,51.52,78.09,61.9,84,72.7,84A23.83,23.83,0,0,0,93.19,73.6,89.84,89.84,0,0,1,91.21,87.65Z"/></g></g></g></g></svg>