<svg xmlns="http://www.w3.org/2000/svg" viewBox="0 0 98.93 55.77"><defs><style>.cls-1{fill:#34383a;}</style></defs><g id="Layer_2" data-name="Layer 2"><g id="Layer_1-2" data-name="Layer 1"><path class="cls-1" d="M98.93,12.49a38.73,38.73,0,0,0-1.09-9.07,1.57,1.57,0,0,0-1.75-1.17c-12,1.86-22.68,3.05-32.74,3.63l-.08-4.37A1.54,1.54,0,0,0,61,.18l-11.42,6L37.78.29a1.5,1.5,0,0,0-1.49.07,1.53,1.53,0,0,0-.74,1.31v4.2A328.3,328.3,0,0,1,2.9,2,1.52,1.52,0,0,0,1.17,3.16,38.53,38.53,0,0,0,0,12.49c0,.87,0,1.73.1,2.58a1.46,1.46,0,0,0-.1.52,6.17,6.17,0,0,0,2.53,5C12,32.05,24.93,43,43.21,55l.16.11a3.14,3.14,0,0,0,1.37.46c1.59.13,3.18.2,4.73.2a58.94,58.94,0,0,0,6.33-.35,3.15,3.15,0,0,0,1-.31.61.61,0,0,0,.14-.07l.33-.22C73.83,43.93,86.83,32.55,97,20.06a6.08,6.08,0,0,0,2-4.47,1.72,1.72,0,0,0-.1-.52C98.89,14.11,98.93,13.26,98.93,12.49Zm-6.19,6.19a3.11,3.11,0,0,1-2-.74c1.52-.33,3.06-.6,4.64-.82A3.11,3.11,0,0,1,92.74,18.68ZM60.23,4.08l.12,6.08-7-2.46Zm-21.59.1,7,3.47-7,2.61ZM3.39,16.88c1.72.21,3.39.48,5,.81a3.15,3.15,0,0,1-2.25,1A3.09,3.09,0,0,1,3.39,16.88ZM38,48.19C24.9,39.09,14.89,30.51,7.13,21.7a6.06,6.06,0,0,0,2.51-1,6.12,6.12,0,0,0,9,3.27,6.16,6.16,0,0,0,6.11,5.52,6.28,6.28,0,0,0,1.69-.25,6.18,6.18,0,0,0,6,4.89,6.4,6.4,0,0,0,1.85-.31,6.09,6.09,0,0,0-.3,1.86,6.17,6.17,0,0,0,4.17,5.82A6.18,6.18,0,0,0,37.1,45,6,6,0,0,0,38,48.19ZM12.37,18.68s0-.07,0-.1c1.95.52,3.84,1.1,5.65,1.76a3.07,3.07,0,0,1-5.66-1.66Zm9.27,4.63A3.1,3.1,0,0,1,22,22a48.45,48.45,0,0,1,5.22,2.74,5.11,5.11,0,0,0-.48.93,3.07,3.07,0,0,1-5.09-2.33ZM29.37,28a3.6,3.6,0,0,1,.07-.66,5.36,5.36,0,0,0,.55-.77,39.05,39.05,0,0,1,4.51,3.73,3,3,0,0,1-2,.78A3.08,3.08,0,0,1,29.37,28Zm7.73,7.73a3.13,3.13,0,0,1,.61-1.82,25.72,25.72,0,0,1,2.9,4.88c-.14,0-.27,0-.42,0A3.1,3.1,0,0,1,37.1,35.68Zm5.37,12.24a3.08,3.08,0,0,1-.63-5.7,20,20,0,0,1,.66,5.05C42.5,47.48,42.48,47.7,42.47,47.92Zm12.4-.65a23,23,0,0,0,.57,5.07A50.46,50.46,0,0,1,45,52.48a23.58,23.58,0,0,0,.59-5.21c0-16.56-18.17-30.8-42.49-33.53,0-.41,0-.83,0-1.25A35.12,35.12,0,0,1,3.84,5.3C12.41,6.67,23.5,8.25,35.55,9v3.52a1.54,1.54,0,0,0,.67,1.27,1.43,1.43,0,0,0,.88.27,1.7,1.7,0,0,0,.54-.09L49.31,9.56l12.12,4.27a1.74,1.74,0,0,0,.5.08,1.64,1.64,0,0,0,.92-.29,1.56,1.56,0,0,0,.64-1.29L63.42,9c9.78-.56,20.19-1.69,31.71-3.44a34.74,34.74,0,0,1,.7,7c0,.46,0,.93,0,1.45C72,17.09,54.87,31,54.87,47.27ZM86.53,19a3.06,3.06,0,0,1-5.31,1.77C82.92,20.11,84.69,19.51,86.53,19Zm-9.25,4.31a3.06,3.06,0,0,1-5.1,2.31,2,2,0,0,0-.11-.26,50.63,50.63,0,0,1,5.1-2.84A3.07,3.07,0,0,1,77.28,23.31ZM69.56,28a3.1,3.1,0,0,1-4.25,2.86,37,37,0,0,1,4.11-3.59l0,0A3.2,3.2,0,0,1,69.56,28ZM58,47.92c0-.22,0-.44,0-.65a20.47,20.47,0,0,1,.65-5.06A3.11,3.11,0,0,1,60.28,45,3.08,3.08,0,0,1,58,47.92Zm1.82-9.2a25.47,25.47,0,0,1,2.91-4.91,3,3,0,0,1,.64,1.87,3.1,3.1,0,0,1-3.1,3.09A2.3,2.3,0,0,1,59.83,38.72Zm2.84,9.08A6,6,0,0,0,63.38,45a6.12,6.12,0,0,0-1.09-3.45,6.18,6.18,0,0,0,4.18-5.82,6.33,6.33,0,0,0-.22-1.57l.22,0a6.2,6.2,0,0,0,6-4.87,5.88,5.88,0,0,0,1.68.23A6.16,6.16,0,0,0,80.31,24a6.14,6.14,0,0,0,9-3.27,6.23,6.23,0,0,0,2.7,1A165.58,165.58,0,0,1,62.67,47.8Z"/></g></g></svg>