<svg xmlns="http://www.w3.org/2000/svg" viewBox="0 0 76.3 91.06"><defs><style>.cls-1{fill:#34383a;}</style></defs><g id="Layer_2" data-name="Layer 2"><g id="Layer_1-2" data-name="Layer 1"><path class="cls-1" d="M75,72.06l-.33-.57-2.06-3.56L53.55,35l-.19-.34.08-.38.43-1.87L55,27.42,56.93,19a6.4,6.4,0,0,0-1.09-5.28,6.16,6.16,0,0,0-1.15-1.19,6.31,6.31,0,0,0-1.34-.84l-.53-.25,0,0V1.73a1.73,1.73,0,1,0-3.45,0V11.2l-.69.23a5.71,5.71,0,0,0-.74.29,42.21,42.21,0,0,0-4.23,2.37c-2.3,1.43-3.69,2.24-5.52,2.24s-3.23-.81-5.52-2.23a40.25,40.25,0,0,0-4.23-2.38,6.33,6.33,0,0,0-.74-.3L27,11.2V1.73a1.73,1.73,0,1,0-3.45,0v9.7l0,0-.54.25a6.71,6.71,0,0,0-1.34.83,6.26,6.26,0,0,0-1.15,1.21A6.42,6.42,0,0,0,19.36,19l1.87,8.16,1.12,4.88.45,2,.09.39-.2.35-19,32.11L1.6,70.36l-.48.82A8.6,8.6,0,0,0,8.06,84l.56,0a8.64,8.64,0,0,0,3.06-.56l.83-.31.41.79a8.64,8.64,0,0,0,11.31,3.88l.68-.32.5.57a8.52,8.52,0,0,0,6.5,3,8.7,8.7,0,0,0,5.2-1.74l.61-.46.6.46a8.66,8.66,0,0,0,5.23,1.77,8.19,8.19,0,0,0,.85,0A8.57,8.57,0,0,0,50,88.18l.54-.6.7.39a8.64,8.64,0,0,0,3.65,1.08l.56,0a8.67,8.67,0,0,0,7.43-4.25l.45-.77.82.37a8.47,8.47,0,0,0,3,.73,5.33,5.33,0,0,0,.56,0A8.61,8.61,0,0,0,75,72.06ZM22.73,18.24a2.91,2.91,0,0,1,1-3,3.08,3.08,0,0,1,.5-.33,2.81,2.81,0,0,1,1.36-.35,3,3,0,0,1,1.3.3A38.09,38.09,0,0,1,30.81,17c2.37,1.48,4.43,2.75,7.34,2.75s5-1.27,7.34-2.75a38.09,38.09,0,0,1,3.88-2.19,3,3,0,0,1,1.3-.3A2.77,2.77,0,0,1,52,14.9a3.74,3.74,0,0,1,.49.32,2.91,2.91,0,0,1,1,3L51.33,28l-1.11,4.87-.18.77H26.26l-.18-.77-1.17-5.11ZM6,69.79,25,37.57l.29-.49H50.79l.29.5,19.3,33.34.55.94a4.29,4.29,0,0,1-.55.4,5.18,5.18,0,0,1-2.7.76h-.34A5.18,5.18,0,0,1,65,72.28a3.37,3.37,0,0,0-1.75-.49,3.18,3.18,0,0,0-1,.16,3.36,3.36,0,0,0-2.06,1.86,5.16,5.16,0,0,1-4.74,3.11l-.34,0A5.06,5.06,0,0,1,52.46,76a3.33,3.33,0,0,0-2-.62,3.37,3.37,0,0,0-2.74,1.41,5.15,5.15,0,0,1-3.71,2.13l-.52,0A5.13,5.13,0,0,1,40,77.52a3.35,3.35,0,0,0-4.59,0,5.13,5.13,0,0,1-3.5,1.38,5.07,5.07,0,0,1-.55,0,5.13,5.13,0,0,1-3.69-2.15,3.4,3.4,0,0,0-2.76-1.41,3.33,3.33,0,0,0-1.71.47,5.18,5.18,0,0,1-7.48-2.66,3.4,3.4,0,0,0-2-2,3.49,3.49,0,0,0-1.2-.22,3.32,3.32,0,0,0-1.57.39,5.22,5.22,0,0,1-2.4.59H8.29A5.16,5.16,0,0,1,6,71.13a5.58,5.58,0,0,1-.56-.39ZM67.68,81.72h-.34A5.18,5.18,0,0,1,65,81a3.37,3.37,0,0,0-1.75-.49,3.18,3.18,0,0,0-1,.16,3.36,3.36,0,0,0-2.06,1.86,5.16,5.16,0,0,1-4.74,3.11l-.34,0a5.06,5.06,0,0,1-2.65-.94,3.33,3.33,0,0,0-2-.62,3.37,3.37,0,0,0-2.74,1.41,5.15,5.15,0,0,1-3.71,2.13l-.52,0A5.13,5.13,0,0,1,40,86.22a3.35,3.35,0,0,0-4.59,0,5.13,5.13,0,0,1-3.5,1.38,5.07,5.07,0,0,1-.55,0,5.13,5.13,0,0,1-3.69-2.15A3.4,3.4,0,0,0,24.93,84a3.33,3.33,0,0,0-1.71.47,5.18,5.18,0,0,1-7.48-2.66,3.4,3.4,0,0,0-2-2,3.49,3.49,0,0,0-1.2-.22A3.32,3.32,0,0,0,11,80a5.22,5.22,0,0,1-2.4.59H8.29a5.17,5.17,0,0,1-4.82-5.49,5,5,0,0,1,.25-1.29c.15.11.31.21.47.31a8.51,8.51,0,0,0,3.87,1.21l.56,0a8.64,8.64,0,0,0,3.06-.56l.83-.31.41.79a8.64,8.64,0,0,0,11.31,3.88l.68-.32.5.57a8.52,8.52,0,0,0,6.5,3,8.7,8.7,0,0,0,5.2-1.74l.61-.46.6.46a8.66,8.66,0,0,0,5.23,1.77,8.19,8.19,0,0,0,.85,0A8.57,8.57,0,0,0,50,79.48l.54-.6.7.39a8.64,8.64,0,0,0,3.65,1.08l.56,0a8.67,8.67,0,0,0,7.43-4.25l.45-.77.82.37a8.47,8.47,0,0,0,3,.73,5.33,5.33,0,0,0,.56,0,8.56,8.56,0,0,0,4.42-1.23c.16-.1.32-.2.47-.31a5,5,0,0,1,.26,2A5.17,5.17,0,0,1,67.68,81.72Z"/></g></g></svg>