<svg xmlns="http://www.w3.org/2000/svg" viewBox="0 0 48.43 35.09"><defs><style>.cls-1{fill:#ceb98e;}</style></defs><g id="Layer_2" data-name="Layer 2"><g id="Layer_1-2" data-name="Layer 1"><path class="cls-1" d="M48.32,13.93a.89.89,0,0,0-.53-.44l-.07,0a25.32,25.32,0,0,0-9-.13,25,25,0,0,0-.15-9,.87.87,0,0,0-.4-.56.9.9,0,0,0-.68-.12l-.07,0A25.34,25.34,0,0,0,29.52,8,25,25,0,0,0,24.87.28.88.88,0,0,0,24.22,0h0a.89.89,0,0,0-.66.29A25,25,0,0,0,18.91,8,25.27,25.27,0,0,0,11,3.64a.9.9,0,0,0-1.13.6l0,.07a25.14,25.14,0,0,0-.14,9,25.38,25.38,0,0,0-9,.13,1,1,0,0,0-.56.4.91.91,0,0,0-.12.68s0,0,0,.07c.1.32,2.46,7.76,8.67,11.72a33.5,33.5,0,0,0-4.16,2.47.92.92,0,0,0-.36.59.88.88,0,0,0,.16.67,1.34,1.34,0,0,0,.2.21c.28.19,6.76,4.81,12.26,4.81a16.68,16.68,0,0,0,7.4-1.57,16.75,16.75,0,0,0,7.41,1.57c5.49,0,12-4.62,12.26-4.81a.94.94,0,0,0,.36-.59,1,1,0,0,0-.16-.68,1.34,1.34,0,0,0-.21-.2,33.38,33.38,0,0,0-4.15-2.47,20.91,20.91,0,0,0,6.62-7.22,24.54,24.54,0,0,0,2-4.5A.92.92,0,0,0,48.32,13.93Zm-18.2-4A23.77,23.77,0,0,1,37,5.72c.3,2.12.8,8-2,12.78a19.74,19.74,0,0,1-8,7.15,21.47,21.47,0,0,0,3.72-11.3A17,17,0,0,0,30.12,9.91Zm1.5,23.38a14.2,14.2,0,0,1-6.95-1.58.93.93,0,0,0-.46-.12.89.89,0,0,0-.45.12,14.23,14.23,0,0,1-7,1.58c-3.67,0-8.08-2.47-10.1-3.75a33.48,33.48,0,0,1,4-2.14,21.26,21.26,0,0,0,8.78,1.78,26,26,0,0,0,4.77-.45,26.22,26.22,0,0,0,4.77.45,21.3,21.3,0,0,0,8.79-1.78,34.29,34.29,0,0,1,3.95,2.14C39.69,30.82,35.29,33.29,31.62,33.29Zm-7.41-31c1.56,2,4.7,6.64,4.7,12.05s-3.14,10.08-4.7,12c-1.55-2-4.69-6.63-4.69-12S22.66,4.28,24.21,2.3ZM11.46,5.72A24,24,0,0,1,18.31,9.9a17.16,17.16,0,0,0-.59,4.45,21.47,21.47,0,0,0,3.72,11.3,19.7,19.7,0,0,1-8-7.14C10.71,13.82,11.1,8.21,11.46,5.72ZM2.12,15.05a24.05,24.05,0,0,1,8,.2,17.29,17.29,0,0,0,1.71,4.15,21.46,21.46,0,0,0,8.87,7.93,19.79,19.79,0,0,1-10.52-2.18C5.52,22.44,3.06,17.39,2.12,15.05ZM43.67,20a17.36,17.36,0,0,1-5.46,5.19A19.74,19.74,0,0,1,27.7,27.33a21.52,21.52,0,0,0,8.87-7.93,17.29,17.29,0,0,0,1.71-4.15,24,24,0,0,1,8-.2A24.33,24.33,0,0,1,43.67,20Z"/></g></g></svg>