<svg xmlns="http://www.w3.org/2000/svg" viewBox="0 0 38.75 38.75"><defs><style>.cls-1{fill:#ceb98e;}</style></defs><g id="Layer_2" data-name="Layer 2"><g id="Layer_1-2" data-name="Layer 1"><path class="cls-1" d="M0,17.87A13.12,13.12,0,0,1,.82,15.7a4.88,4.88,0,0,1,4.24-2.5c2.59-.07,5.19,0,7.79,0a.77.77,0,0,1,.84.74.79.79,0,0,1-.89.77H5.57a3.82,3.82,0,0,0-4.06,4V29.89a3.82,3.82,0,0,0,4,4H10a1.07,1.07,0,0,1,.88.41c.56.61,1.18,1.16,1.81,1.79V34.85c0-.66.29-.94,1-.94h7.75a3.82,3.82,0,0,0,4-4c0-1.58,0-3.16,0-4.73a2.22,2.22,0,0,1,0-.45.73.73,0,0,1,1.44,0,1.58,1.58,0,0,1,0,.38c0,1.66,0,3.33,0,5a5.27,5.27,0,0,1-4.19,5.19,5.77,5.77,0,0,1-1.31.13H14.23v1c0,.43,0,.86,0,1.28a1,1,0,0,1-.53,1h-.46c-.25-.22-.51-.43-.75-.67-.82-.8-1.62-1.62-2.44-2.42a.94.94,0,0,0-.55-.23c-1.47,0-2.95,0-4.42,0A4.94,4.94,0,0,1,.82,32.89,12.68,12.68,0,0,1,0,30.73Z"/><path class="cls-1" d="M26.71,0a11.86,11.86,0,0,1,4.71.64,10.61,10.61,0,0,1,7,7.71A10.56,10.56,0,0,1,35.15,19.1a1.33,1.33,0,0,0-.5,1.12c0,1.18,0,2.35,0,3.52a.79.79,0,0,1-1.43.6c-.81-.81-1.63-1.62-2.43-2.44a.61.61,0,0,0-.59-.19,16.58,16.58,0,0,1-7.35-.14A10.52,10.52,0,0,1,16.63,17a10.66,10.66,0,0,1-1.74-7A10.71,10.71,0,0,1,19,2.38,11.05,11.05,0,0,1,26.71,0Zm6.43,22.1c0-.9,0-1.69,0-2.48a1.44,1.44,0,0,1,.62-1.32,8.77,8.77,0,0,0,2.93-4.14,9.24,9.24,0,0,0-1-8.38,9.07,9.07,0,0,0-6.37-4.13,16.12,16.12,0,0,0-4.6,0,10,10,0,0,0-2.75.77A9.07,9.07,0,0,0,16.48,9.6a9.14,9.14,0,0,0,3.46,8.82,8.88,8.88,0,0,0,5.46,2,15,15,0,0,0,5-.34,1,1,0,0,1,1.12.32C32,21,32.53,21.51,33.14,22.12Z"/><path class="cls-1" d="M12.86,23.47h7.65a2.29,2.29,0,0,1,.37,0,.76.76,0,0,1,.68.74.77.77,0,0,1-.68.75,2.29,2.29,0,0,1-.37,0H5.07c-.61,0-1-.29-1-.76s.37-.75,1-.75Z"/><path class="cls-1" d="M11.39,27.7h6.16a1.88,1.88,0,0,1,.53.06.66.66,0,0,1,.49.68.67.67,0,0,1-.5.71,1.88,1.88,0,0,1-.53.06H5c-.58,0-.94-.3-.94-.76s.36-.75,1-.75Z"/><path class="cls-1" d="M10.38,19.23h5.26a2.28,2.28,0,0,1,.45,0,.74.74,0,0,1,.55.73.71.71,0,0,1-.54.69,1.68,1.68,0,0,1-.45,0H5.1a2.36,2.36,0,0,1-.38,0A.77.77,0,0,1,4.09,20a.75.75,0,0,1,.62-.71,1.84,1.84,0,0,1,.41,0Z"/><path class="cls-1" d="M20.8,27.71a.75.75,0,1,1-.74.76A.78.78,0,0,1,20.8,27.71Z"/><path class="cls-1" d="M26.25,12.41c0-.29,0-.58,0-.87a1.39,1.39,0,0,1,1-1.33l.36-.12A1.68,1.68,0,0,0,27,6.83a1.67,1.67,0,0,0-1.62,1.46c-.1.72-.38,1-.9,1s-.66-.41-.6-1.11a3.17,3.17,0,0,1,5.51-1.78A3.16,3.16,0,0,1,28,11.53c-.2.07-.28.16-.27.37,0,.48,0,1,0,1.44a.76.76,0,1,1-1.51,0v-.91Z"/><path class="cls-1" d="M27.75,16.36a.76.76,0,0,1-.73.76.73.73,0,0,1-.76-.72.75.75,0,0,1,.72-.77A.77.77,0,0,1,27.75,16.36Z"/></g></g></svg>