<svg xmlns="http://www.w3.org/2000/svg" viewBox="0 0 47.11 32.95"><defs><style>.cls-1{fill:#ceb98e;}</style></defs><g id="Layer_2" data-name="Layer 2"><g id="Layer_1-2" data-name="Layer 1"><path class="cls-1" d="M45.58,14.78l-3.26-1.41L39.56,8a4.18,4.18,0,0,0-3.75-2.29H31V4.26A4.24,4.24,0,0,0,26.73,0H4.19A4.23,4.23,0,0,0,0,4.26V24.67a2.57,2.57,0,0,0,.71,1.8,2.53,2.53,0,0,0,1.79.77h.73v.12c0,.06,0,.11,0,.14s0,.05,0,.07A5.37,5.37,0,0,0,8.55,33h0a5.34,5.34,0,0,0,3.77-1.56,5.28,5.28,0,0,0,1.58-3.78v-.05a1.56,1.56,0,0,0,0-.2v-.13H32.38v.33a5.36,5.36,0,0,0,5.33,5.38h0a5.34,5.34,0,0,0,3.77-1.56,5.28,5.28,0,0,0,1.58-3.78v-.38h1.49a2.55,2.55,0,0,0,2.54-2.55V17.12A2.53,2.53,0,0,0,45.58,14.78Zm-37,16.31a3.49,3.49,0,1,1,3.48-3.49A3.5,3.5,0,0,1,8.58,31.09Zm20.5-5.7H13.46l0-.07a5.29,5.29,0,0,0-4.81-3.09H8.55a5.31,5.31,0,0,0-4.82,3.09l0,.07H2.54a.67.67,0,0,1-.67-.71V19.11H29.08Zm0-21.12v13H1.87v-13A2.36,2.36,0,0,1,4.19,1.88H26.73a2.38,2.38,0,0,1,1.67.71,2.35,2.35,0,0,1,.68,1.67h0ZM31,7.59h4.87a2.35,2.35,0,0,1,2.09,1.26l2.2,4.27H31Zm6.79,23.5a3.49,3.49,0,1,1,3.49-3.49A3.49,3.49,0,0,1,37.74,31.09Zm7.52-6.41a.67.67,0,0,1-.68.71H42.63l0-.07a5.34,5.34,0,0,0-9.69,0l0,.07H31V15H41.48l3.36,1.48a.75.75,0,0,1,.42.69Z"/></g></g></svg>