<svg id="b64c32c7-f0f9-463b-bd03-02fe7d58259c" data-name="Layer 1" xmlns="http://www.w3.org/2000/svg" width="133.16" height="43.32" viewBox="0 0 133.16 43.32"><g id="fb0e72de-1cab-492c-9cec-7f2d8493a20d" data-name="Layer 1-2"><path d="M64.48.45a.73.73,0,0,0-.56.35L53.75,14.39,43.44.8a.76.76,0,0,0-.56-.35c-.26,0-.57.13-.57.74V28.3c0,.4.2.62.57.62a.54.54,0,0,0,.58-.62V2.75l9.72,12.64c.4.52.75.53,1.15,0L63.9,2.75V28.3a.56.56,0,0,0,.45.62h.13c.37,0,.57-.22.57-.62V1.19c0-.61-.31-.74-.57-.74" style="fill:#ceb98e;stroke:#ceb98e;stroke-miterlimit:10;stroke-width:0.75px"/><path d="M78.08,22.58a.55.55,0,0,0-.32.14l-.2.14v-6a.53.53,0,0,0-.46-.61.55.55,0,0,0-.61.46v6.83a6.42,6.42,0,0,1-3.27,1.18A2.08,2.08,0,0,1,71.55,24,3.87,3.87,0,0,1,71,21.68V16.9a.53.53,0,0,0-.46-.61.55.55,0,0,0-.61.46v5c0,2.72,1.11,4.09,3.31,4.09a6.8,6.8,0,0,0,3.25-1v3.25a3.53,3.53,0,0,1-.23,1.61,1.69,1.69,0,0,1-1.24.66c-.46.08-.55.33-.55.53a.48.48,0,0,0,.44.52H75a2.82,2.82,0,0,0,.87-.19,2.39,2.39,0,0,0,1.5-1.46,5.75,5.75,0,0,0,.17-1.7v-3.9l.11-.07c.84-.56,1-.8,1-1a.48.48,0,0,0-.42-.53.24.24,0,0,0-.12,0" style="fill:#ceb98e;stroke:#ceb98e;stroke-miterlimit:10;stroke-width:0.75px"/><path d="M92,.39A13.27,13.27,0,0,0,83.9,2.66,6.87,6.87,0,0,0,81,8.39c0,3.32,2,5.59,6,6.74a40.21,40.21,0,0,0,5.23.88,35.49,35.49,0,0,1,3.71.64,7.83,7.83,0,0,1,2.82,1.23,4.64,4.64,0,0,1,2,4.06,5.43,5.43,0,0,1-2.15,4.45,9.64,9.64,0,0,1-6.12,1.83A11.25,11.25,0,0,1,84,24.94a.81.81,0,0,0-.54-.29.5.5,0,0,0-.57.43.49.49,0,0,0,0,.12c0,.17.11.49,1,1.25a12.86,12.86,0,0,0,8.55,2.9,10.76,10.76,0,0,0,6.9-2.15A6.6,6.6,0,0,0,102,21.84c0-2.8-1.46-4.78-4.36-5.9a23.41,23.41,0,0,0-5.17-1.07c-1.43-.17-2.67-.35-3.69-.53a12.7,12.7,0,0,1-3.33-1.07,5.71,5.71,0,0,1-2.41-2,5.21,5.21,0,0,1-.85-2.92,5.73,5.73,0,0,1,2.48-4.78,11.87,11.87,0,0,1,7.17-2A16.08,16.08,0,0,1,98.14,2.7a11.74,11.74,0,0,1,4.39,3.38.73.73,0,0,0,.53.32.52.52,0,0,0,.58-.45.24.24,0,0,0,0-.12c0-.18-.11-.52-1.08-1.49C99.93,1.72,96.37.39,92,.39" style="fill:#ceb98e;stroke:#ceb98e;stroke-miterlimit:10;stroke-width:0.75px"/><path d="M111.08,16.1a4.84,4.84,0,0,0-3.34,1.23A4.71,4.71,0,0,0,106.17,21a4.75,4.75,0,0,0,1.51,3.61,5,5,0,0,0,3.5,1.25,5.32,5.32,0,0,0,4.19-1.89.63.63,0,0,0,.22-.44.49.49,0,0,0-.43-.54h-.11a.65.65,0,0,0-.49.29,4.29,4.29,0,0,1-3.39,1.53,3.57,3.57,0,0,1-3.08-1.43,3.81,3.81,0,0,1-.73-2h7.83a.59.59,0,0,0,.64-.53.28.28,0,0,0,0-.13,4.33,4.33,0,0,0-1.39-3.28,4.6,4.6,0,0,0-3.36-1.3m3.56,4.19h-7.27a3.82,3.82,0,0,1,.64-1.59,3.54,3.54,0,0,1,3.08-1.55,3.28,3.28,0,0,1,2.85,1.41,3.54,3.54,0,0,1,.69,1.73" style="fill:#ceb98e;stroke:#ceb98e;stroke-miterlimit:10;stroke-width:0.75px"/><path d="M119.51.76a.49.49,0,0,0-.53.44V25a.55.55,0,0,0,.46.61.54.54,0,0,0,.61-.46.38.38,0,0,0,0-.15V1.31a.49.49,0,0,0-.42-.55h-.12" style="fill:#ceb98e;stroke:#ceb98e;stroke-miterlimit:10;stroke-width:0.75px"/><path d="M131.48,1.46a3.87,3.87,0,0,0-2.63-.95,3.72,3.72,0,0,0-3,1.31,5.28,5.28,0,0,0-1,3.48V16.39h-1.71a.51.51,0,0,0,0,1h1.71v13.2a.55.55,0,0,0,.46.61.54.54,0,0,0,.61-.46.38.38,0,0,0,0-.15V17.39h5.76a.51.51,0,0,0,0-1h-5.76v-11a4.49,4.49,0,0,1,.76-2.8,2.6,2.6,0,0,1,2.16-.94,2.76,2.76,0,0,1,2,.71,2.64,2.64,0,0,1,.87,1.93c0,.54.3.65.53.65s.54-.08.54-.6a3.58,3.58,0,0,0-1.26-2.79" style="fill:#ceb98e;stroke:#ceb98e;stroke-miterlimit:10;stroke-width:0.75px"/><polygon points="45.82 42.17 45.82 42.87 42.31 42.87 42.31 36.69 43.14 36.69 43.14 42.17 45.82 42.17" style="fill:#af80b1;stroke:#af80b1;stroke-miterlimit:10;stroke-width:0.75px"/><rect x="54.24" y="36.69" width="0.84" height="6.18" style="fill:#af80b1;stroke:#af80b1;stroke-miterlimit:10;stroke-width:0.75px"/><path d="M69.17,36.69v6.18h-.42a.43.43,0,0,1-.16,0,.37.37,0,0,1-.13-.12l-3.58-4.66a.81.81,0,0,1,0,.22.61.61,0,0,1,0,.19v4.4h-.74V36.69h.66l.06.07,3.58,4.66V36.69Z" style="fill:#af80b1;stroke:#af80b1;stroke-miterlimit:10;stroke-width:0.75px"/><path d="M83.28,39.9v2.37a3.63,3.63,0,0,1-1,.51,3.74,3.74,0,0,1-1.16.16,3.64,3.64,0,0,1-1.34-.23,3.14,3.14,0,0,1-1-.65,2.93,2.93,0,0,1-.65-1,3.77,3.77,0,0,1-.23-1.29,3.71,3.71,0,0,1,.22-1.28,2.77,2.77,0,0,1,1.63-1.65,3.48,3.48,0,0,1,1.31-.23,3.82,3.82,0,0,1,.68.06,3,3,0,0,1,.59.15,2.82,2.82,0,0,1,.49.25,2.67,2.67,0,0,1,.43.32l-.24.38a.22.22,0,0,1-.14.11.23.23,0,0,1-.2,0l-.3-.17a1.23,1.23,0,0,0-.32-.17,3,3,0,0,0-.45-.14,3.21,3.21,0,0,0-.62,0,2.3,2.3,0,0,0-1,.17,1.85,1.85,0,0,0-.72.49,2.28,2.28,0,0,0-.46.76,3.37,3.37,0,0,0-.16,1,3.09,3.09,0,0,0,.17,1,2.32,2.32,0,0,0,.48.78,2.17,2.17,0,0,0,.74.49,2.83,2.83,0,0,0,1,.16,3.31,3.31,0,0,0,.77-.09,3.71,3.71,0,0,0,.65-.27V40.54h-1a.15.15,0,0,1-.13,0,.12.12,0,0,1,.05-.15v-.48Z" style="fill:#af80b1;stroke:#af80b1;stroke-miterlimit:10;stroke-width:0.75px"/><polygon points="95.87 42.19 95.87 42.87 92.06 42.87 92.06 36.69 95.87 36.69 95.87 37.37 92.9 37.37 92.9 39.43 95.3 39.43 95.3 40.08 92.9 40.08 92.9 42.19 95.87 42.19" style="fill:#af80b1;stroke:#af80b1;stroke-miterlimit:10;stroke-width:0.75px"/><path d="M109.11,42.87h-.74a.37.37,0,0,1-.33-.17l-1.61-2.21a.54.54,0,0,0-.15-.15.59.59,0,0,0-.27-.05h-.64v2.58h-.83V36.69h1.74a4.15,4.15,0,0,1,1,.12,1.76,1.76,0,0,1,.7.34,1.18,1.18,0,0,1,.41.55,1.58,1.58,0,0,1,.14.71,1.83,1.83,0,0,1-.11.61,1.44,1.44,0,0,1-.29.51,2,2,0,0,1-.48.38,2.75,2.75,0,0,1-.64.25.75.75,0,0,1,.27.26Zm-2.85-3.18a2.25,2.25,0,0,0,.64-.09,1.33,1.33,0,0,0,.47-.21,1.08,1.08,0,0,0,.28-.39,1.37,1.37,0,0,0,.09-.49,1,1,0,0,0-.36-.84,1.74,1.74,0,0,0-1.09-.28h-.92v2.3Z" style="fill:#af80b1;stroke:#af80b1;stroke-miterlimit:10;stroke-width:0.75px"/><rect x="117.46" y="36.69" width="0.84" height="6.18" style="fill:#af80b1;stroke:#af80b1;stroke-miterlimit:10;stroke-width:0.75px"/><polygon points="131.19 42.19 131.18 42.87 127.38 42.87 127.38 36.69 131.18 36.69 131.18 37.37 128.21 37.37 128.21 39.43 130.62 39.43 130.62 40.08 128.21 40.08 128.21 42.19 131.19 42.19" style="fill:#af80b1;stroke:#af80b1;stroke-miterlimit:10;stroke-width:0.75px"/><path d="M33.37,18.86c-.38-3-3.57-5.93-6.13-8.31l-.06-.05C26.6,10,26.06,9.5,25.62,9,22.1,5.47,19.19,5.64,14.37,6.25s-6.8,3.78-9,7.44l-.29.48a15.63,15.63,0,0,1-2,2.45C1.61,18.2.08,19.83.42,22.46L.48,23c.51,4.1,1,8,4.25,10.41A7.59,7.59,0,0,0,9.46,34.7,33.71,33.71,0,0,0,15,34.06c.92-.16,1.79-.31,2.63-.42a18.78,18.78,0,0,1,4.24.12c2.7.29,5.25.55,7-1.7,2.65-3.42,5-9,4.53-13.2M28,31.39c-1.38,1.79-3.55,1.56-6.07,1.3a19.66,19.66,0,0,0-4.47-.12c-.73.1-1.48.22-2.28.36a30,30,0,0,0,12.9-9,23.17,23.17,0,0,0,3.75-6.45A4.87,4.87,0,0,1,32.3,19c.49,3.87-1.8,9.18-4.32,12.42m-7.45-12.8a7.48,7.48,0,0,1,.17,1.49,28.16,28.16,0,0,1-2.33,4.66,11.23,11.23,0,0,1-3.92-1.32c3-.72,5.14-3.46,6.06-4.83m-2.27,1.17a10.76,10.76,0,0,1-1.49,1.37,6,6,0,0,1-2.12-2.07,3.15,3.15,0,0,0,1.8-.77,2.53,2.53,0,0,0,.59-.82,15.23,15.23,0,0,1,1.22,2.29M13,15.39a9.6,9.6,0,0,1,1.05-.86,8.58,8.58,0,0,1,2.17,2,1.93,1.93,0,0,1-.53,1.1,2.3,2.3,0,0,1-1.62.51h0a14.35,14.35,0,0,1-1-2.7m6,3.53a12.27,12.27,0,0,0-3.93-5,9.82,9.82,0,0,1,1.56-.68,9.2,9.2,0,0,1,3.47,4.06,15.92,15.92,0,0,1-1.1,1.62m-6.82-2.59c.49,1.56,1.56,4.14,3.58,5.51a5.77,5.77,0,0,1-2.57.76A8.8,8.8,0,0,1,11,19.69a6.28,6.28,0,0,1,1.25-3.36m9.22,1.51a10.62,10.62,0,0,0-5.74-6.38,13.71,13.71,0,0,1,4.65-.2,5,5,0,0,1,.64,1,8.31,8.31,0,0,1,.38,5.56m-7.3-5.91a9.52,9.52,0,0,1,1.38.62,9.28,9.28,0,0,0-5.25,5.28,10.89,10.89,0,0,1-.38-2.6,9,9,0,0,1,4.25-3.3M9,16.76a10.52,10.52,0,0,0,8.83,9c-.68,1.07-1.45,2.18-2.28,3.32a13.21,13.21,0,0,1-6.79-3,12.8,12.8,0,0,1-1.25-1.3,18.29,18.29,0,0,1,1.49-8M27.2,23.3a27,27,0,0,1-6.9,6,21.52,21.52,0,0,1-3.59,0,38.8,38.8,0,0,0,5-8.73h.09v-.18a.11.11,0,0,0,0-.08h0c1.24-3.38,1.32-6.23.23-8.46-1.35-2.77-4.13-4-6.44-4.63A25.51,25.51,0,0,1,18.48,7,8,8,0,0,1,24.87,9.8c.48.48,1.08,1,1.66,1.57a31.84,31.84,0,0,1,4.59,4.91,21.13,21.13,0,0,1-3.89,7M10.8,12.64c-2.69,2.24-4.16,5.85-4.35,10.75A16,16,0,0,1,4.23,17,13.87,13.87,0,0,0,6,14.72l.29-.48C8,11.39,9.53,8.83,12.52,7.77a12.94,12.94,0,0,1,6.74,2.32,12.18,12.18,0,0,0-8.46,2.55m7.5,17.75a37,37,0,0,1-9.14,3.26,6.4,6.4,0,0,1-3.79-1.11C2.48,30.39,2,26.88,1.53,22.85l-.06-.52c-.24-1.87.67-3.1,1.82-4.38A15.43,15.43,0,0,0,8,26.86,15.31,15.31,0,0,0,18.3,30.39" style="fill:#ceb98e;stroke:#ceb98e;stroke-miterlimit:10;stroke-width:0.75px"/></g></svg>