<svg id="bf6f78d2-db91-4689-a488-aa2837265576" data-name="Layer 1" xmlns="http://www.w3.org/2000/svg" width="132.91" height="43.07" viewBox="0 0 132.91 43.07"><g id="b7261615-3da1-4d00-8da2-6536d820009c" data-name="Layer 1-2"><path d="M64.36.32a.73.73,0,0,0-.56.35L53.63,14.26,43.32.67a.81.81,0,0,0-.56-.35c-.26,0-.57.13-.57.74V28.17c0,.4.2.62.57.62a.54.54,0,0,0,.58-.62V2.62l9.72,12.64c.4.52.75.53,1.15,0L63.78,2.62V28.17a.54.54,0,0,0,.45.62.29.29,0,0,0,.13,0c.37,0,.57-.22.57-.62V1.06c0-.61-.31-.74-.57-.74" style="fill:#ceb98e;stroke:#ceb98e;stroke-miterlimit:10;stroke-width:0.5px"/><path d="M78,22.45a.52.52,0,0,0-.32.14l-.2.14v-6a.54.54,0,0,0-1.07-.14.33.33,0,0,0,0,.14v6.68a6.33,6.33,0,0,1-3.27,1.18,2,2,0,0,1-1.67-.69,3.79,3.79,0,0,1-.55-2.35V16.77a.54.54,0,0,0-1.07-.14.33.33,0,0,0,0,.14v4.82c0,2.72,1.11,4.09,3.31,4.09a6.7,6.7,0,0,0,3.25-1v3.25a3.82,3.82,0,0,1-.23,1.61,1.69,1.69,0,0,1-1.24.66c-.46.08-.55.33-.55.53a.48.48,0,0,0,.43.53h.1a2.39,2.39,0,0,0,.87-.19,2.41,2.41,0,0,0,1.5-1.46,5.68,5.68,0,0,0,.17-1.7V24l.11-.07c.84-.56,1-.8,1-1a.48.48,0,0,0-.42-.53H78" style="fill:#ceb98e;stroke:#ceb98e;stroke-miterlimit:10;stroke-width:0.5px"/><path d="M91.84.26a13.34,13.34,0,0,0-8.06,2.27,6.86,6.86,0,0,0-2.94,5.73c0,3.32,2,5.59,6,6.74a38.58,38.58,0,0,0,5.23.88c1.24.15,2.48.37,3.71.64a7.9,7.9,0,0,1,2.82,1.23,4.68,4.68,0,0,1,2,4.06,5.41,5.41,0,0,1-2.15,4.45,9.6,9.6,0,0,1-6.12,1.83,11.24,11.24,0,0,1-8.41-3.28.88.88,0,0,0-.54-.29.52.52,0,0,0-.58.44.4.4,0,0,0,0,.11c0,.17.11.49,1,1.25a12.84,12.84,0,0,0,8.55,2.9,10.78,10.78,0,0,0,6.9-2.15,6.6,6.6,0,0,0,2.65-5.36c0-2.8-1.46-4.78-4.36-5.9a24.62,24.62,0,0,0-5.17-1.07c-1.43-.17-2.67-.35-3.69-.53a11.79,11.79,0,0,1-3.33-1.07,5.65,5.65,0,0,1-2.41-2.05,5.11,5.11,0,0,1-.85-2.92,5.75,5.75,0,0,1,2.48-4.78,11.85,11.85,0,0,1,7.17-2A16.08,16.08,0,0,1,98,2.57,11.92,11.92,0,0,1,102.41,6a.71.71,0,0,0,.53.32.52.52,0,0,0,.58-.45V5.7c0-.18-.11-.52-1.08-1.49C99.81,1.59,96.25.26,91.84.26" style="fill:#ceb98e;stroke:#ceb98e;stroke-miterlimit:10;stroke-width:0.5px"/><path d="M111,16a4.87,4.87,0,0,0-3.34,1.23,4.69,4.69,0,0,0-1.57,3.62,4.73,4.73,0,0,0,1.51,3.61,4.94,4.94,0,0,0,3.5,1.25,5.29,5.29,0,0,0,4.19-1.89.67.67,0,0,0,.22-.44.5.5,0,0,0-.44-.54h-.1a.68.68,0,0,0-.49.29,4.27,4.27,0,0,1-3.39,1.53A3.55,3.55,0,0,1,108,23.2a3.69,3.69,0,0,1-.73-2h7.83a.58.58,0,0,0,.64-.53v-.13a4.38,4.38,0,0,0-1.39-3.28A4.62,4.62,0,0,0,111,16m3.56,4.19h-7.27a3.61,3.61,0,0,1,.64-1.59A3.55,3.55,0,0,1,111,17a3.34,3.34,0,0,1,2.85,1.41,3.79,3.79,0,0,1,.69,1.73" style="fill:#ceb98e;stroke:#ceb98e;stroke-miterlimit:10;stroke-width:0.5px"/><path d="M119.39.63a.49.49,0,0,0-.53.45.17.17,0,0,0,0,.1v23.7a.54.54,0,0,0,1.07.15V1.18a.49.49,0,0,0-.43-.54h-.11" style="fill:#ceb98e;stroke:#ceb98e;stroke-miterlimit:10;stroke-width:0.5px"/><path d="M131.36,1.33a3.91,3.91,0,0,0-2.63-.95,3.77,3.77,0,0,0-3,1.31,5.24,5.24,0,0,0-1,3.48V16.26H123a.51.51,0,0,0-.4.6.5.5,0,0,0,.4.4h1.71v13.2a.54.54,0,1,0,1.07.15V17.26h5.76a.51.51,0,0,0,0-1H125.8v-11a4.44,4.44,0,0,1,.76-2.8,2.66,2.66,0,0,1,2.16-.94,2.83,2.83,0,0,1,2,.71,2.69,2.69,0,0,1,.87,1.93c0,.54.3.65.53.65s.54-.08.54-.6a3.64,3.64,0,0,0-1.26-2.79" style="fill:#ceb98e;stroke:#ceb98e;stroke-miterlimit:10;stroke-width:0.5px"/><polygon points="45.7 42.04 45.7 42.74 42.19 42.74 42.19 36.56 43.02 36.56 43.02 42.04 45.7 42.04" style="fill:#af80b1;stroke:#af80b1;stroke-miterlimit:10;stroke-width:0.5px"/><rect x="54.12" y="36.56" width="0.84" height="6.18" style="fill:#af80b1;stroke:#af80b1;stroke-miterlimit:10;stroke-width:0.5px"/><path d="M69.05,36.56v6.18h-.42a.23.23,0,0,1-.29-.12L64.76,38v4.81H64V36.56h.66l.06.07,3.58,4.66V36.56Z" style="fill:#af80b1;stroke:#af80b1;stroke-miterlimit:10;stroke-width:0.5px"/><path d="M83.16,39.77v2.37a3.26,3.26,0,0,1-1,.51,3.54,3.54,0,0,1-1.16.16,3.41,3.41,0,0,1-1.34-.23A2.87,2.87,0,0,1,78,40.93a3.35,3.35,0,0,1-.23-1.29A3.75,3.75,0,0,1,78,38.36a2.77,2.77,0,0,1,1.63-1.65,3.86,3.86,0,0,1,2-.17,5.66,5.66,0,0,1,.59.15,4.52,4.52,0,0,1,.49.25c.15.1.29.21.43.32l-.24.38a.19.19,0,0,1-.14.11.18.18,0,0,1-.2,0l-.3-.17-.32-.17-.45-.14c-.21,0-.42,0-.62,0a2.63,2.63,0,0,0-1,.17,2,2,0,0,0-.72.49,2.13,2.13,0,0,0-.46.76,3.12,3.12,0,0,0-.16,1,3.09,3.09,0,0,0,.17,1,2.17,2.17,0,0,0,.48.78,2,2,0,0,0,.74.49,2.62,2.62,0,0,0,1,.16,2.5,2.5,0,0,0,.77-.09,4.06,4.06,0,0,0,.65-.27V40.41h-1a.15.15,0,0,1-.13,0,.13.13,0,0,1,0-.15v-.48Z" style="fill:#af80b1;stroke:#af80b1;stroke-miterlimit:10;stroke-width:0.5px"/><polygon points="95.75 42.06 95.75 42.74 91.94 42.74 91.94 36.56 95.75 36.56 95.75 37.24 92.78 37.24 92.78 39.3 95.18 39.3 95.18 39.95 92.78 39.95 92.78 42.06 95.75 42.06" style="fill:#af80b1;stroke:#af80b1;stroke-miterlimit:10;stroke-width:0.5px"/><path d="M109,42.74h-.74a.35.35,0,0,1-.33-.17l-1.61-2.21a.54.54,0,0,0-.15-.15.86.86,0,0,0-.27-.05h-.64v2.58h-.83V36.56h1.74a4.21,4.21,0,0,1,1,.12,2.07,2.07,0,0,1,.7.34,1.37,1.37,0,0,1,.41.55,2,2,0,0,1,.14.71,1.78,1.78,0,0,1-.11.61,1.36,1.36,0,0,1-.29.51,2,2,0,0,1-.48.38,2.18,2.18,0,0,1-.64.25,1,1,0,0,1,.27.26Zm-2.85-3.18a1.77,1.77,0,0,0,.64-.09,1.42,1.42,0,0,0,.47-.21,1.21,1.21,0,0,0,.28-.39,1.33,1.33,0,0,0,.09-.49,1,1,0,0,0-.36-.84,1.91,1.91,0,0,0-1.09-.28h-.92v2.3Z" style="fill:#af80b1;stroke:#af80b1;stroke-miterlimit:10;stroke-width:0.5px"/><rect x="117.34" y="36.56" width="0.84" height="6.18" style="fill:#af80b1;stroke:#af80b1;stroke-miterlimit:10;stroke-width:0.5px"/><polygon points="131.07 42.06 131.06 42.74 127.26 42.74 127.26 36.56 131.06 36.56 131.06 37.24 128.09 37.24 128.09 39.3 130.5 39.3 130.5 39.95 128.09 39.95 128.09 42.06 131.07 42.06" style="fill:#af80b1;stroke:#af80b1;stroke-miterlimit:10;stroke-width:0.5px"/><path d="M33.25,18.73c-.38-3-3.57-5.93-6.13-8.31l-.06-.05c-.58-.54-1.12-1-1.56-1.49C22,5.34,19.07,5.51,14.25,6.12s-6.8,3.78-9,7.44L5,14a14.76,14.76,0,0,1-2,2.45C1.49,18.07,0,19.7.3,22.33l.06.52c.51,4.1,1,8,4.25,10.41a7.58,7.58,0,0,0,4.73,1.31,32.76,32.76,0,0,0,5.49-.64c.92-.16,1.79-.31,2.63-.42a18.81,18.81,0,0,1,4.24.12c2.7.29,5.25.55,7-1.7,2.65-3.42,5.05-9,4.53-13.2M27.86,31.26c-1.38,1.79-3.55,1.56-6.07,1.3a19.66,19.66,0,0,0-4.47-.12c-.73.1-1.48.22-2.28.36a30.1,30.1,0,0,0,12.9-9,23.52,23.52,0,0,0,3.75-6.45,5.32,5.32,0,0,1,.49,1.54c.49,3.87-1.8,9.18-4.32,12.42m-7.45-12.8A8.3,8.3,0,0,1,20.58,20a29.81,29.81,0,0,1-2.33,4.66,10.9,10.9,0,0,1-3.92-1.32c3-.72,5.14-3.46,6.06-4.83m-2.27,1.17a12,12,0,0,1-1.49,1.37A5.92,5.92,0,0,1,14.51,19a3,3,0,0,0,1.8-.77,2.86,2.86,0,0,0,.59-.82,15.73,15.73,0,0,1,1.22,2.29m-5.2-4.42A9.6,9.6,0,0,1,14,14.4a9.17,9.17,0,0,1,2.17,2,2,2,0,0,1-.53,1.1A2.28,2.28,0,0,1,14,18h-.05a13.46,13.46,0,0,1-1-2.7m6,3.53a12.42,12.42,0,0,0-3.93-5,10.82,10.82,0,0,1,1.56-.68A9.31,9.31,0,0,1,20,17.17a15.35,15.35,0,0,1-1.1,1.62M12.12,16.2c.49,1.56,1.56,4.14,3.58,5.51a5.85,5.85,0,0,1-2.57.76,8.36,8.36,0,0,1-2.26-2.91,6.26,6.26,0,0,1,1.25-3.36m9.22,1.51a10.71,10.71,0,0,0-5.74-6.38,13.7,13.7,0,0,1,4.65-.2,5.85,5.85,0,0,1,.64,1,8.37,8.37,0,0,1,.38,5.56M14,11.78a12.14,12.14,0,0,1,1.38.62,9.34,9.34,0,0,0-5.25,5.28,10.34,10.34,0,0,1-.38-2.6A9,9,0,0,1,14,11.78M8.84,16.63a10.5,10.5,0,0,0,8.83,9C17,26.7,16.22,27.81,15.39,29A13,13,0,0,1,8.6,26a11,11,0,0,1-1.25-1.3,18,18,0,0,1,1.49-8m18.24,6.52a27.1,27.1,0,0,1-6.9,6,21.52,21.52,0,0,1-3.59,0,39.35,39.35,0,0,0,5-8.73h.09v-.26h0c1.24-3.38,1.32-6.23.23-8.46-1.35-2.77-4.13-4-6.44-4.63a27.87,27.87,0,0,1,2.89-.2,8.05,8.05,0,0,1,6.39,2.78c.48.48,1.08,1,1.66,1.57A32.82,32.82,0,0,1,31,16.15a21.13,21.13,0,0,1-3.89,7M10.68,12.51C8,14.75,6.52,18.36,6.33,23.26a15.67,15.67,0,0,1-2.22-6.43,14.13,14.13,0,0,0,1.74-2.24l.29-.48C7.9,11.26,9.41,8.7,12.4,7.64A13.06,13.06,0,0,1,19.14,10a12.27,12.27,0,0,0-8.46,2.55m7.5,17.75A36.79,36.79,0,0,1,9,33.52a6.38,6.38,0,0,1-3.79-1.11c-2.89-2.15-3.33-5.66-3.84-9.69l-.06-.52c-.24-1.87.67-3.1,1.82-4.38a15.37,15.37,0,0,0,4.72,8.91,15.25,15.25,0,0,0,10.29,3.53" style="fill:#ceb98e;stroke:#ceb98e;stroke-miterlimit:10;stroke-width:0.5px"/></g></svg>